<!-- icon666.com - MILLIONS vector ICONS FREE --><svg viewBox="0 0 24 24" xmlns="http://www.w3.org/2000/svg"><g id="off"><path d="m12.00012 21.45184c-9.24812-.06445-12.36688-12.37915-4.26825-16.83831a1.00027 1.00027 0 0 1 .95613 1.75683 6.96 6.96 0 0 0 3.31183 13.08148c7.16406-.01367 9.60376-9.66064 3.31225-13.08148a1.00022 1.00022 0 0 1 .956-1.75683c8.09862 4.45935 4.98076 16.77227-4.26796 16.83831zm-2.963-8.9599a2.95764 2.95764 0 1 0 3.94842-2.78149c.00183-.0249.01446-.04614.01446-.07153v-6.09082a1 1 0 0 0 -2 0v6.09082c0 .02539.01263.04663.01447.07153a2.958 2.958 0 0 0 -1.97736 2.78149z"></path></g></svg>