<!-- icon666.com - MILLIONS vector ICONS FREE --><svg version="1.1" id="Capa_1" xmlns="http://www.w3.org/2000/svg" xmlns:xlink="http://www.w3.org/1999/xlink" x="0px" y="0px" viewBox="0 0 512 512" style="enable-background:new 0 0 512 512;" xml:space="preserve"><path style="fill:#A7F9E9;" d="M490.297,179.057L490.297,179.057c-22.597-22.597-59.233-22.597-81.829,0l-188.47,188.47 c-16.542,16.542-20.958,40.603-13.281,61.178l-42.336,42.336c-9.37,9.37-9.37,24.562,0,33.932s24.562,9.37,33.932,0l42.336-42.336 c20.574,7.677,44.635,3.262,61.178-13.281l188.47-188.47C512.893,238.289,512.893,201.653,490.297,179.057z"></path><path style="fill:#3EDDBF;" d="M260.912,452.128c-11.681,0-22.655-4.541-30.901-12.786c-8.246-8.246-12.786-19.22-12.786-30.901 c0-11.682,4.541-22.656,12.786-30.902L418.48,189.07c8.246-8.246,19.221-12.786,30.902-12.786s22.656,4.541,30.901,12.786 c8.246,8.246,12.787,19.22,12.786,30.902c0,11.681-4.541,22.655-12.787,30.901l-188.47,188.469 C283.568,447.588,272.594,452.128,260.912,452.128z"></path><path style="fill:#FF9300;" d="M240.859,428.495c-11.058-11.058-11.058-29.05,0-40.107l188.47-188.47 c11.058-11.058,29.051-11.058,40.108,0s11.058,29.05,0,40.108l-188.47,188.47C269.909,439.552,251.916,439.552,240.859,428.495z"></path><path style="fill:#FF7400;" d="M469.431,240.026L280.964,428.492c-11.056,11.056-29.047,11.057-40.103,0 c-2.437-2.437-4.347-5.216-5.699-8.186c10.472,4.815,23.306,2.912,31.917-5.699l188.466-188.466 c8.62-8.62,10.522-21.454,5.708-31.926c2.962,1.36,5.749,3.263,8.186,5.699C480.495,210.971,480.495,228.961,469.431,240.026z"></path><g><path style="fill:#00AD8C;" d="M420.113,249.743c-1.977,0-3.955-0.755-5.463-2.263l-16.442-16.442 c-3.018-3.018-3.018-7.909,0-10.927c3.017-3.018,7.909-3.017,10.927-0.001l16.442,16.442c3.018,3.018,3.018,7.909,0,10.927 C424.068,248.989,422.09,249.743,420.113,249.743z"></path><path style="fill:#00AD8C;" d="M385.234,284.623c-1.977,0-3.955-0.755-5.463-2.263l-16.443-16.443 c-3.018-3.018-3.018-7.909,0-10.928c3.017-3.016,7.909-3.016,10.927,0l16.443,16.443c3.018,3.018,3.018,7.909,0,10.928 C389.189,283.868,387.211,284.623,385.234,284.623z"></path><path style="fill:#00AD8C;" d="M350.355,319.502c-1.977,0-3.955-0.755-5.463-2.263l-16.443-16.443 c-3.018-3.018-3.018-7.909,0-10.928c3.017-3.016,7.909-3.016,10.927,0l16.443,16.443c3.018,3.018,3.018,7.909,0,10.928 C354.31,318.747,352.333,319.502,350.355,319.502z"></path><path style="fill:#00AD8C;" d="M315.477,354.38c-1.977,0-3.955-0.755-5.463-2.263l-16.443-16.443 c-3.018-3.018-3.018-7.909,0-10.928c3.017-3.016,7.909-3.016,10.927,0l16.443,16.443c3.018,3.018,3.018,7.909,0,10.928 C319.431,353.626,317.454,354.38,315.477,354.38z"></path><path style="fill:#00AD8C;" d="M280.598,389.26c-1.977,0-3.955-0.755-5.463-2.263l-16.443-16.443 c-3.018-3.018-3.018-7.909,0-10.928c3.017-3.016,7.909-3.016,10.927,0l16.443,16.443c3.018,3.018,3.018,7.909,0,10.928 C284.552,388.505,282.575,389.26,280.598,389.26z"></path></g><g><path style="fill:#FEC007;" d="M155.844,95.406c-21.066,0-40.687-9.474-53.833-25.992C91.814,56.602,76.6,49.254,60.27,49.254 s-31.545,7.348-41.741,20.161c-2.657,3.34-7.519,3.892-10.857,1.234c-3.339-2.657-3.891-7.518-1.234-10.856 C19.583,43.275,39.204,33.801,60.27,33.801s40.687,9.474,53.832,25.992c10.197,12.813,25.411,20.161,41.741,20.161 s31.545-7.348,41.741-20.161c13.145-16.518,32.766-25.992,53.832-25.992s40.687,9.474,53.833,25.992 c2.657,3.338,2.104,8.199-1.234,10.856c-3.34,2.657-8.2,2.105-10.857-1.234c-10.197-12.813-25.411-20.161-41.741-20.161 c-16.331,0-31.545,7.348-41.741,20.161C196.531,85.933,176.91,95.406,155.844,95.406z"></path><path style="fill:#FEC007;" d="M155.844,149.163c-21.066,0-40.688-9.473-53.833-25.991c-10.196-12.813-25.41-20.161-41.741-20.161 s-31.546,7.348-41.741,20.161c-2.657,3.34-7.517,3.891-10.857,1.234c-3.339-2.657-3.892-7.517-1.235-10.856 C19.582,97.032,39.203,87.558,60.27,87.558c21.066,0,40.688,9.474,53.832,25.992c10.196,12.812,25.41,20.16,41.741,20.16 s31.545-7.348,41.741-20.16c13.144-16.518,32.765-25.992,53.832-25.992s40.688,9.474,53.833,25.992 c2.657,3.339,2.104,8.199-1.235,10.856c-3.338,2.657-8.2,2.105-10.857-1.234c-10.196-12.813-25.41-20.161-41.741-20.161 s-31.545,7.348-41.741,20.161C196.531,139.69,176.91,149.163,155.844,149.163z"></path><path style="fill:#FEC007;" d="M155.844,202.921c-21.067,0-40.688-9.474-53.833-25.992c-10.196-12.812-25.41-20.16-41.741-20.16 s-31.545,7.348-41.741,20.16c-2.657,3.34-7.519,3.892-10.857,1.234c-3.339-2.657-3.891-7.518-1.234-10.856 c13.145-16.518,32.767-25.991,53.833-25.991s40.687,9.473,53.832,25.991c10.196,12.813,25.41,20.161,41.741,20.161 s31.546-7.348,41.741-20.161c13.144-16.518,32.766-25.991,53.832-25.991s40.688,9.473,53.833,25.991 c2.657,3.338,2.104,8.199-1.234,10.856c-3.34,2.657-8.2,2.105-10.857-1.234c-10.196-12.812-25.41-20.16-41.741-20.16 s-31.545,7.348-41.741,20.16C196.532,193.447,176.911,202.921,155.844,202.921z"></path><path style="fill:#FEC007;" d="M155.844,256.678c-21.066,0-40.687-9.474-53.833-25.992c-10.197-12.813-25.41-20.161-41.741-20.161 s-31.545,7.348-41.741,20.161c-2.657,3.34-7.519,3.891-10.857,1.234c-3.339-2.657-3.891-7.518-1.234-10.856 c13.146-16.518,32.767-25.992,53.833-25.992s40.687,9.474,53.832,25.992c10.197,12.813,25.411,20.161,41.741,20.161 s31.545-7.348,41.741-20.161c13.145-16.518,32.766-25.992,53.832-25.992s40.687,9.474,53.833,25.992 c2.657,3.338,2.104,8.199-1.234,10.856c-3.34,2.657-8.2,2.105-10.857-1.234c-10.197-12.813-25.411-20.161-41.741-20.161 c-16.331,0-31.545,7.348-41.741,20.161C196.531,247.204,176.91,256.678,155.844,256.678z"></path></g><path style="fill:#FF9300;" d="M407.02,27.87h-15.168V12.702C391.852,5.687,386.165,0,379.15,0l0,0 c-7.015,0-12.702,5.687-12.702,12.702V27.87H351.28c-7.015,0-12.702,5.687-12.702,12.702l0,0c0,7.015,5.687,12.702,12.702,12.702 h15.168v15.168c0,7.015,5.687,12.702,12.702,12.702l0,0c7.015,0,12.702-5.687,12.702-12.702V53.273h15.168 c7.015,0,12.702-5.687,12.702-12.702l0,0C419.721,33.557,414.035,27.87,407.02,27.87z"></path></svg>