<!-- icon666.com - MILLIONS vector ICONS FREE --><svg viewBox="0 0 354.98667 354.98667" xmlns="http://www.w3.org/2000/svg"><path d="m324.265625 348.160156h-293.546875c-13.195312 0-23.890625-10.699218-23.890625-23.894531s10.695313-23.890625 23.890625-23.890625h293.546875c13.195313 0 23.894531 10.695312 23.894531 23.890625s-10.699218 23.894531-23.894531 23.894531zm0 0" fill="#ffe600"></path><path d="m324.265625 354.988281h-293.546875c-16.9375 0-30.71875-13.78125-30.71875-30.722656 0-16.9375 13.78125-30.71875 30.71875-30.71875h293.546875c16.941406 0 30.722656 13.78125 30.722656 30.71875 0 16.941406-13.78125 30.722656-30.722656 30.722656zm-293.546875-47.789062c-9.414062 0-17.066406 7.65625-17.066406 17.066406s7.652344 17.066406 17.066406 17.066406h293.546875c9.414063 0 17.066406-7.65625 17.066406-17.066406s-7.652343-17.066406-17.066406-17.066406zm0 0" fill="#ffe600"></path><path d="m75.09375 61.441406c-16.941406 0-30.71875-13.78125-30.71875-30.722656 0-16.9375 13.777344-30.71875 30.71875-30.71875s30.71875 13.78125 30.71875 30.71875c0 16.941406-13.777344 30.722656-30.71875 30.722656zm0-47.789062c-9.414062 0-17.066406 7.65625-17.066406 17.066406s7.652344 17.066406 17.066406 17.066406 17.066406-7.65625 17.066406-17.066406-7.652344-17.066406-17.066406-17.066406zm0 0" fill="#602f75"></path><path d="m187.21875 54.609375c-61.019531 19.085937-105.296875 76.054687-105.296875 143.363281 0 82.945313 67.238281 150.1875 150.183594 150.1875h44.375c13.195312 0 23.894531-10.699218 23.894531-23.894531s-10.699219-23.890625-23.894531-23.890625h-37.546875c-58.195313 0-105.050782-48.546875-102.285156-107.351562 2.59375-55.078126 50.039062-97.449219 105.175781-97.449219h34.65625c13.195312 0 23.894531-10.699219 23.894531-23.894531 0-13.195313-10.699219-23.894532-23.894531-23.894532h-44.375" fill="#00e7ff"></path><path d="m276.480469 354.988281h-44.375c-86.578125 0-157.011719-70.4375-157.011719-157.015625 0-69.050781 44.238281-129.28125 110.085938-149.878906 3.613281-1.121094 7.429687.882812 8.554687 4.480469 1.125 3.59375-.882813 7.425781-4.472656 8.554687-60.121094 18.800782-100.515625 73.796875-100.515625 136.84375 0 79.050782 64.316406 143.359375 143.359375 143.359375h44.375c9.414062 0 17.066406-7.65625 17.066406-17.066406s-7.652344-17.066406-17.066406-17.066406h-37.546875c-30.152344 0-58.226563-12.019531-79.039063-33.84375-20.804687-21.808594-31.488281-50.449219-30.058593-80.652344 2.746093-58.292969 51.9375-103.957031 111.988281-103.957031h34.65625c9.414062 0 17.066406-7.65625 17.066406-17.066406 0-9.410157-7.652344-17.066407-17.066406-17.066407h-44.375c-3.773438 0-6.824219-3.054687-6.824219-6.828125 0-3.769531 3.050781-6.824218 6.824219-6.824218h44.375c16.941406 0 30.71875 13.777343 30.71875 30.71875 0 16.941406-13.777344 30.71875-30.71875 30.71875h-34.65625c-52.75 0-95.953125 39.949218-98.351563 90.945312-1.246094 26.4375 8.09375 51.507812 26.292969 70.589844 18.21875 19.097656 42.789063 29.613281 69.167969 29.613281h37.546875c16.941406 0 30.71875 13.78125 30.71875 30.71875 0 16.941406-13.777344 30.722656-30.71875 30.722656zm0 0" fill="#602f75"></path></svg>