<!-- icon666.com - MILLIONS vector ICONS FREE --><svg viewBox="0 0 48 48" xmlns="http://www.w3.org/2000/svg"><g id="Temperature_Scale" fill="rgb(0,0,0)" data-name="Temperature Scale"><path d="m29 28.52v-21.52a7 7 0 0 0 -14 0v21.52a11 11 0 0 0 5.68 19.4c10.85 1.27 16.77-12.43 8.32-19.4zm-1 15.21a9 9 0 1 1 -11.4-13.93c.58-.44.4 1.13.4-22.8a5 5 0 0 1 10 0c0 23.93-.17 22.37.4 22.8a9 9 0 0 1 .6 13.93z"></path><path d="m34 7h4a1 1 0 0 0 0-2h-4a1 1 0 0 0 0 2z"></path><path d="m34 12h6a1 1 0 0 0 0-2h-6a1 1 0 0 0 0 2z"></path><path d="m34 17h4a1 1 0 0 0 0-2h-4a1 1 0 0 0 0 2z"></path><path d="m40 20h-6a1 1 0 0 0 0 2h6a1 1 0 0 0 0-2z"></path><path d="m38 25h-4a1 1 0 0 0 0 2h4a1 1 0 0 0 0-2z"></path><path d="m25 30.68c0-25.34.35-24.6-.87-25.79a3 3 0 0 0 -5.13 2.11v23.68c-6.72 3.16-4.43 13.32 3 13.32s9.72-10.16 3-13.32zm-2-23.68v9h-2v-9a1 1 0 0 1 2 0zm-1 35c-5.6 0-6.94-7.88-1.67-9.71a1 1 0 0 0 .67-.94v-13.35h2v13.35a1 1 0 0 0 .67.94c5.26 1.83 3.93 9.71-1.67 9.71z"></path></g></svg>