<!-- icon666.com - MILLIONS vector ICONS FREE --><svg viewBox="0 -68 512 512" xmlns="http://www.w3.org/2000/svg"><path d="m371.765625 76.554688c-26.34375 0-49.34375 14.320312-61.722656 35.613281 18 16.410156 29.320312 40.078125 29.320312 66.347656 0 4.605469-.351562 9.246094-1.050781 13.785156-.238281 1.5625.210938 3.144531 1.238281 4.34375 1.027344 1.199219 2.523438 1.890625 4.101563 1.890625l12.777344-.003906c15.601562 0 29.695312 6.550781 39.726562 17.039062 27.4375-10 47.039062-36.382812 47.039062-67.363281 0-39.570312-31.980468-71.652343-71.429687-71.652343zm0 0" fill="#ffc843"></path><path d="m334.042969 148.046875c.074219-33.675781 23.3125-61.882813 54.574219-69.46875-5.40625-1.3125-11.042969-2.023437-16.851563-2.023437-26.34375 0-49.34375 14.320312-61.722656 35.613281 10.671875 9.730469 18.992187 22.011719 24 35.878906zm0 0" fill="#ffb400"></path><path d="m48.882812 302.46875c0-26.195312 15.324219-48.792969 37.46875-59.285156v-93.84375c-15.03125 10.230468-25.8125 26.480468-28.53125 45.472656-.335937 2.324219-2.109374 4.15625-4.417968 4.558594-26.402344 4.617187-45.566406 27.511718-45.566406 54.4375 0 25.679687 17.546874 47.324218 41.242187 53.5-.117187-1.597656-.195313-3.207032-.195313-4.839844zm0 0" fill="#fff"></path><path d="m356.429688 198.53125-12.777344.003906c-1.578125 0-3.070313-.6875-4.101563-1.890625-1.027343-1.199219-1.476562-2.78125-1.238281-4.34375.699219-4.542969 1.054688-9.179687 1.054688-13.785156 0-49.433594-40.085938-89.648437-89.359376-89.648437-36.933593 0-69.566406 22.285156-83.128906 56.777343-.59375 1.507813-1.816406 2.660157-3.359375 3.160157-.539062.175781-1.097656.261718-1.664062.261718-1.03125 0-2.039063-.289062-2.90625-.84375-5.265625-3.363281-10.9375-5.9375-16.859375-7.683594v102.640626c22.144531 10.496093 37.46875 33.09375 37.46875 59.289062 0 2.230469-.113282 4.4375-.328125 6.609375h177.199219c30.378906 0 55.09375-24.792969 55.09375-55.273437 0-30.476563-24.714844-55.273438-55.09375-55.273438zm0 0" fill="#fff"></path><path d="m60.953125 222.15625c2.308594-.402344 4.082031-2.234375 4.417969-4.558594 2.238281-15.632812 9.945312-29.40625 20.980468-39.496094v-28.757812c-15.027343 10.226562-25.8125 26.476562-28.53125 45.472656-.335937 2.324219-2.109374 4.15625-4.417968 4.558594-26.402344 4.613281-45.566406 27.507812-45.566406 54.433594 0 10.367187 2.871093 20.070312 7.84375 28.375-.1875-1.84375-.292969-3.707032-.292969-5.59375 0-26.921875 19.164062-49.816406 45.566406-54.433594zm0 0" fill="#76ffd9"></path><path d="m250.007812 88.867188c-36.933593 0-69.566406 22.285156-83.128906 56.777343-.59375 1.507813-1.816406 2.660157-3.359375 3.160157-.539062.175781-1.097656.261718-1.664062.261718-1.03125 0-2.039063-.289062-2.90625-.84375-5.265625-3.363281-10.9375-5.9375-16.859375-7.683594v21.039063c8.648437 1.476563 16.941406 4.65625 24.410156 9.425781.871094.554688 1.875.847656 2.90625.847656.566406 0 1.125-.089843 1.664062-.261718 1.542969-.503906 2.765626-1.65625 3.359376-3.164063 13.5625-34.492187 46.195312-56.777343 83.128906-56.777343 35.195312 0 65.675781 20.53125 80.230468 50.273437-7.78125-41.527344-44.164062-73.054687-87.78125-73.054687zm0 0" fill="#76ffd9"></path><path d="m142.09375 243.183594v-207.386719c0-15.441406-12.480469-27.960937-27.871094-27.960937-15.394531 0-27.871094 12.519531-27.871094 27.960937v207.386719c-22.144531 10.492187-37.46875 33.089844-37.46875 59.285156 0 36.203125 29.253907 65.546875 65.339844 65.546875 36.085938 0 65.339844-29.347656 65.339844-65.546875-.003906-26.195312-15.328125-48.792969-37.46875-59.285156zm0 0" fill="#fff"></path><path d="m70.269531 302.46875c0-26.195312 15.328125-48.78125 37.46875-59.269531v-207.402344c0-11.640625 7.09375-21.617187 17.175781-25.824219-3.292968-1.375-6.902343-2.136718-10.691406-2.136718-15.394531 0-27.871094 12.519531-27.871094 27.960937v207.402344c-22.144531 10.488281-37.46875 33.074219-37.46875 59.269531 0 36.203125 29.253907 65.546875 65.339844 65.546875 3.640625 0 7.210938-.3125 10.691406-.886719-30.996093-5.121094-54.644531-32.113281-54.644531-64.660156zm0 0" fill="#76ffd9"></path><path d="m371.765625 48.714844c4.328125 0 7.839844-3.507813 7.839844-7.835938v-25.484375c0-4.328125-3.511719-7.835937-7.839844-7.835937s-7.835937 3.507812-7.835937 7.835937v25.484375c0 4.328125 3.507812 7.835938 7.835937 7.835938zm0 0" fill="#ffc843"></path><path d="m447.421875 80.152344c2.011719 0 4.019531-.769532 5.550781-2.304688l17.960938-18.019531c3.058594-3.066406 3.050781-8.027344-.015625-11.082031-3.066407-3.054688-8.027344-3.046875-11.082031.015625l-17.964844 18.019531c-3.054688 3.066406-3.046875 8.027344.019531 11.085938 1.53125 1.523437 3.53125 2.285156 5.53125 2.285156zm0 0" fill="#ffc843"></path><path d="m504.164062 140.371094h-25.402343c-4.328125 0-7.835938 3.507812-7.835938 7.835937s3.507813 7.835938 7.835938 7.835938h25.402343c4.328126 0 7.835938-3.507813 7.835938-7.835938s-3.507812-7.835937-7.835938-7.835937zm0 0" fill="#ffc843"></path><path d="m452.972656 218.566406c-3.054687-3.066406-8.015625-3.070312-11.082031-.019531-3.066406 3.058594-3.074219 8.019531-.019531 11.085937l17.964844 18.015626c1.53125 1.539062 3.539062 2.304687 5.550781 2.304687 2 0 4-.761719 5.53125-2.285156 3.066406-3.054688 3.074219-8.019531.015625-11.082031zm0 0" fill="#ffc843"></path><path d="m290.5625 77.847656c1.53125 1.535156 3.539062 2.304688 5.550781 2.304688 2 0 4-.761719 5.53125-2.289063 3.066407-3.054687 3.074219-8.015625.015625-11.082031l-17.957031-18.019531c-3.058594-3.066407-8.019531-3.070313-11.085937-.015625-3.066407 3.054687-3.070313 8.015625-.015626 11.082031zm0 0" fill="#ffc843"></path><g fill="#434c54"><path d="m125.890625 358.992188c-3.8125.789062-7.738281 1.1875-11.667969 1.1875-31.710937 0-57.503906-25.886719-57.503906-57.707032 0-22.21875 12.949219-42.710937 32.988281-52.207031 2.734375-1.296875 4.480469-4.054687 4.480469-7.082031v-63.703125h14.4375c4.328125 0 7.835938-3.507813 7.835938-7.839844 0-4.328125-3.507813-7.835937-7.835938-7.835937h-14.4375v-17.519532h14.4375c4.328125 0 7.835938-3.507812 7.835938-7.839844 0-4.328124-3.507813-7.835937-7.835938-7.835937h-14.4375v-17.519531h14.4375c4.328125 0 7.835938-3.507813 7.835938-7.835938 0-4.332031-3.507813-7.839844-7.835938-7.839844h-14.4375v-17.519531h14.4375c4.328125 0 7.835938-3.507812 7.835938-7.839843 0-4.328126-3.507813-7.835938-7.835938-7.835938h-14.4375v-28.421875c0-11.097656 8.988281-20.125 20.035156-20.125s20.03125 9.027344 20.03125 20.125v35.105469c0 4.328125 3.511719 7.835937 7.839844 7.835937s7.835938-3.507812 7.835938-7.835937v-35.105469c0-19.738281-16.019532-35.796875-35.707032-35.796875-19.691406 0-35.707031 16.058594-35.707031 35.796875v109.582031c-14.554687 11.160156-25.003906 27.582032-28.1875 46.601563-29.269531 5.949219-50.328125 31.671875-50.328125 61.828125 0 27.382812 17.484375 50.738281 41.84375 59.453125 5.21875 35.367187 35.683594 62.589843 72.378906 62.589843 4.992188 0 9.984375-.507812 14.839844-1.511718 4.238281-.875 6.964844-5.023438 6.089844-9.261719-.875-4.234375-5.03125-6.957031-9.261719-6.085937zm-84.546875-63.003907c-15.226562-7.882812-25.671875-23.828125-25.671875-42.179687 0-23.109375 16.4375-42.757813 39.074219-46.714844 5.660156-.988281 10.011718-5.472656 10.828125-11.167969 1.574219-10.980469 6.207031-20.910156 12.941406-29v71.492188c-21.039063 11.832031-35.019531 33.546875-37.171875 57.570312zm0 0"></path><path d="m122.058594 277.65625v-75.390625c0-4.289063-3.304688-8.03125-7.59375-8.160156-4.4375-.132813-8.078125 3.425781-8.078125 7.832031v75.71875c0 4.328125 3.507812 7.839844 7.835937 7.839844s7.835938-3.511719 7.835938-7.839844zm0 0"></path><path d="m371.765625 68.71875c-25.910156 0-48.949219 12.535156-63.421875 31.871094-16.257812-12.273438-36.464844-19.5625-58.335938-19.5625-39.214843 0-73.964843 23.085937-89.324218 59.070312-3.453125-2.019531-7.050782-3.734375-10.753906-5.160156v-35.828125c0-4.328125-3.511719-7.835937-7.839844-7.835937s-7.835938 3.507812-7.835938 7.835937v144.074219c0 3.027344 1.746094 5.78125 4.480469 7.078125 20.039063 9.496093 32.988281 29.988281 32.988281 52.207031 0 17.332031-7.664062 33.59375-21.019531 44.609375-3.339844 2.753906-3.8125 7.691406-1.058594 11.03125 1.546875 1.882813 3.789063 2.851563 6.046875 2.851563 1.757813 0 3.523438-.585938 4.984375-1.789063 13.199219-10.886719 21.996094-25.804687 25.273438-42.253906h25.121093c4.328126 0 7.835938-3.507813 7.835938-7.835938 0-4.332031-3.507812-7.839843-7.835938-7.839843h-23.695312c-.441406-26.078126-14.882812-50.136719-37.445312-62.824219v-86.316407c1.632812.835938 3.242187 1.726563 4.800781 2.722657 3.304687 2.113281 7.523437 2.632812 11.207031 1.433593 3.78125-1.226562 6.78125-4.050781 8.234375-7.746093 12.375-31.472657 42.144531-51.808594 75.835937-51.808594 44.953126 0 81.523438 36.699219 81.523438 81.8125 0 4.070313-.3125 8.164063-.90625 12.179687h-10.625c-4.328125 0-7.835938 3.507813-7.835938 7.839844 0 4.328125 3.507813 7.835938 7.835938 7.835938h36.429688c26.058593 0 47.257812 21.277344 47.257812 47.433594s-21.199219 47.4375-47.257812 47.4375h-115.058594c-4.328125 0-7.835938 3.507812-7.835938 7.835937 0 4.332031 3.507813 7.839844 7.835938 7.839844h115.058594c34.699218 0 62.929687-28.3125 62.929687-63.113281 0-13.03125-3.960937-25.15625-10.738281-35.222657 2.148437-1.128906 4.253906-2.355469 6.304687-3.691406 3.625-2.363281 4.648438-7.21875 2.285157-10.84375-2.367188-3.628906-7.222657-4.648437-10.847657-2.285156-2.710937 1.769531-5.542969 3.3125-8.464843 4.632812-11.082032-9.761719-25.59375-15.699219-41.46875-15.699219h-9.980469c.5-4.035156.753906-8.121093.753906-12.179687 0-26.15625-10.324219-49.9375-27.101563-67.464844 11.554688-16.128906 30.40625-26.660156 51.667969-26.660156 35.0625 0 63.589844 28.628906 63.589844 63.816406 0 12.269531-3.476563 24.179688-10.050781 34.449219-2.332032 3.644531-1.269532 8.492188 2.375 10.824219 3.644531 2.335937 8.492187 1.273437 10.824218-2.375 8.195313-12.792969 12.527344-27.628907 12.527344-42.898438 0-43.832031-35.558594-79.488281-79.269531-79.488281zm0 0"></path><path d="m246.597656 126.800781h-17.765625c-4.328125 0-7.835937 3.507813-7.835937 7.835938s3.507812 7.835937 7.835937 7.835937h17.765625c4.328125 0 7.835938-3.507812 7.835938-7.835937s-3.507813-7.835938-7.835938-7.835938zm0 0"></path><path d="m167.183594 187.40625c-4.328125 0-7.835938 3.507812-7.835938 7.835938 0 4.328124 3.507813 7.835937 7.835938 7.835937h21.941406c4.328125 0 7.839844-3.507813 7.839844-7.835937 0-4.328126-3.511719-7.835938-7.839844-7.835938zm0 0"></path><path d="m212.636719 237.039062c0 4.328126 3.507812 7.835938 7.835937 7.835938h19.855469c4.328125 0 7.835937-3.507812 7.835937-7.835938 0-4.332031-3.507812-7.839843-7.835937-7.839843h-19.855469c-4.328125 0-7.835937 3.507812-7.835937 7.839843zm0 0"></path><path d="m277.941406 168.597656h-17.761718c-4.328126 0-7.835938 3.507813-7.835938 7.835938s3.507812 7.835937 7.835938 7.835937h17.761718c4.328125 0 7.839844-3.507812 7.839844-7.835937s-3.511719-7.835938-7.839844-7.835938zm0 0"></path><path d="m339.59375 243.828125c4.324219 0 7.835938-3.507813 7.835938-7.835937 0-4.328126-3.511719-7.835938-7.835938-7.835938h-19.59375c-4.328125 0-7.835938 3.507812-7.835938 7.835938 0 4.328124 3.507813 7.835937 7.835938 7.835937zm0 0"></path><path d="m275.332031 274.652344c0 4.332031 3.507813 7.839844 7.835938 7.839844h19.851562c4.328125 0 7.835938-3.507813 7.835938-7.839844 0-4.328125-3.507813-7.835938-7.835938-7.835938h-19.851562c-4.328125 0-7.835938 3.507813-7.835938 7.835938zm0 0"></path></g><path d="m144.660156 302.46875c0-16.863281-13.628906-30.535156-30.4375-30.535156-16.8125 0-30.4375 13.671875-30.4375 30.535156s13.625 30.535156 30.4375 30.535156c16.808594 0 30.4375-13.671875 30.4375-30.535156zm0 0" fill="#ffc843"></path></svg>